<svg class="cori-logo" xmlns="http://www.w3.org/2000/svg" width="308" height="136" viewBox="0 0 308 136" fill="none" style="background-color:transparent;">
    <defs>
        <mask id="border-mask" x="0" y="0" width="308" height="136" maskUnits="userSpaceOnUse" maskContentUnits="userSpaceOnUse">
            <path fill="#fff" d="M0 0h308v136H0z"></path>
            <path d="M146.929 51.474c4.452 0 7.404-3.04 7.754-6.628h-3.977c-.3 1.644-1.426 3.115-3.777 3.115-2.902 0-4.478-1.894-4.478-5.408 0-3.513 1.576-5.432 4.478-5.432 2.451 0 3.602 1.595 3.752 3.264h4.002c-.25-3.688-3.277-6.802-7.754-6.802-5.628 0-8.48 3.937-8.48 8.97 0 4.959 2.852 8.921 8.48 8.921zM162.036 51.474c3.577 0 5.653-2.068 6.003-4.41h-3.727c-.225.597-.85 1.295-2.276 1.295-1.751 0-2.526-1.071-2.551-2.591h8.729v-1.42c0-3.54-2.251-6.355-6.253-6.355-4.252 0-6.403 3.065-6.403 6.753 0 3.738 2.351 6.728 6.478 6.728zm-2.526-8.123c.075-1.246.8-2.218 2.451-2.218 1.526 0 2.251.972 2.326 2.218h-4.777zM169.582 51.25h3.852v-7.227c0-1.57 1-2.541 2.376-2.541 1.526 0 2.201.897 2.201 2.392v7.376h3.852v-8.572c0-2.866-1.951-4.685-4.852-4.685-1.701 0-2.852.623-3.577 1.47h-.1l-.3-1.246h-3.452V51.25zM189.369 51.25h2.651v-3.34h-1.501c-1.15 0-1.676-.523-1.676-1.744v-4.684h3.127v-3.265h-3.127v-3.413h-3.677v3.413h-2.301v3.265h2.126v5.606c0 2.368 1.351 4.162 4.378 4.162zM199.741 51.474c3.576 0 5.652-2.068 6.003-4.41h-3.727c-.225.597-.851 1.295-2.276 1.295-1.751 0-2.527-1.071-2.552-2.591h8.73v-1.42c0-3.54-2.251-6.355-6.254-6.355-4.252 0-6.403 3.065-6.403 6.753 0 3.738 2.351 6.728 6.479 6.728zm-2.527-8.123c.075-1.246.801-2.218 2.451-2.218 1.526 0 2.252.972 2.327 2.218h-4.778zM207.286 51.25h3.602v-6.43c0-2.092 1.176-3.313 3.002-3.313h1.25v-3.514h-.9c-1.676 0-2.777.972-3.352 2.118h-.1l-.3-1.894h-3.202V51.25zM144.853 74.992c4.252 0 6.528-2.84 6.528-6.728 0-3.912-2.326-6.752-6.528-6.752-4.203 0-6.529 2.84-6.529 6.752 0 3.913 2.276 6.728 6.529 6.728zm0-3.364c-1.576 0-2.602-.996-2.602-3.364 0-2.342 1.001-3.388 2.602-3.388 1.6 0 2.601 1.021 2.601 3.388 0 2.368-1.001 3.365-2.601 3.365zM152.763 74.768h3.852v-7.226c0-1.57 1.001-2.542 2.377-2.542 1.525 0 2.201.897 2.201 2.392v7.376h3.852v-8.572c0-2.865-1.951-4.684-4.853-4.684-1.701 0-2.851.623-3.577 1.47h-.1l-.3-1.246h-3.452v13.032zM184.338 68.14c2.126-.847 3.452-2.741 3.452-5.258 0-2.965-2.251-5.557-5.978-5.557h-8.004v17.443h3.927v-6.155h2.451l3.777 6.155h4.602v-.249l-4.227-6.38zm-6.603-7.326h3.877c1.526 0 2.151 1.047 2.151 2.093 0 1.097-.575 2.218-2.151 2.218h-3.877v-4.311zM194.416 74.992c1.701 0 2.852-.623 3.577-1.47h.1l.301 1.246h3.451V61.736h-3.852v7.226c0 1.57-1 2.542-2.376 2.542-1.526 0-2.201-.897-2.201-2.392v-7.376h-3.852v8.572c0 2.865 1.951 4.684 4.852 4.684zM203.549 74.768h3.602V68.34c0-2.093 1.175-3.314 3.001-3.314h1.251v-3.513h-.901c-1.675 0-2.776.971-3.351 2.118h-.1l-.301-1.894h-3.201v13.032zM216.356 74.992c1.626 0 2.777-.573 3.502-1.395h.1l.275 1.171h3.452v-8.572c0-2.716-2.151-4.684-5.728-4.684-3.852 0-5.628 2.093-5.628 4.535h3.602c0-.798.7-1.445 1.901-1.445 1.426 0 2.001.697 2.001 1.594v.698h-2.802c-3.601 0-5.252 1.595-5.252 4.012 0 2.317 1.626 4.086 4.577 4.086zm.976-2.99c-1.151 0-1.751-.548-1.751-1.295 0-.698.55-1.246 1.776-1.246h2.476v.548c0 1.071-.926 1.993-2.501 1.993zM225.436 74.768h3.852v-18.44h-3.852v18.44zM139.45 98.287h3.952V80.844h-3.952v17.443zM145.899 98.287h3.852V91.06c0-1.57 1.001-2.541 2.377-2.541 1.526 0 2.201.897 2.201 2.392v7.376h3.852v-8.572c0-2.866-1.951-4.685-4.853-4.685-1.701 0-2.851.623-3.577 1.47h-.1l-.3-1.246h-3.452v13.033zM159.933 98.287h3.852V91.06c0-1.57 1.001-2.541 2.376-2.541 1.526 0 2.202.897 2.202 2.392v7.376h3.852v-8.572c0-2.866-1.951-4.685-4.853-4.685-1.701 0-2.851.623-3.577 1.47h-.1l-.3-1.246h-3.452v13.033zM179.87 98.51c4.252 0 6.528-2.84 6.528-6.727 0-3.912-2.326-6.753-6.528-6.753s-6.528 2.84-6.528 6.753c0 3.912 2.276 6.728 6.528 6.728zm0-3.363c-1.576 0-2.601-.997-2.601-3.364 0-2.342 1-3.389 2.601-3.389s2.601 1.022 2.601 3.389-1 3.364-2.601 3.364zM190.444 98.287h4.927l4.103-12.784v-.249h-3.902l-2.577 9.42h-.1l-2.651-9.42h-3.952v.25l4.152 12.783zM203.935 98.51c1.625 0 2.776-.572 3.501-1.395h.1l.276 1.172h3.451v-8.572c0-2.716-2.151-4.685-5.728-4.685-3.852 0-5.628 2.093-5.628 4.535h3.602c0-.797.701-1.445 1.901-1.445 1.426 0 2.001.698 2.001 1.595v.697h-2.801c-3.602 0-5.253 1.595-5.253 4.012 0 2.318 1.626 4.087 4.578 4.087zm.975-2.99c-1.151 0-1.751-.547-1.751-1.295 0-.698.55-1.246 1.776-1.246h2.476v.548c0 1.072-.925 1.994-2.501 1.994zM218.768 98.287h2.651v-3.34h-1.501c-1.15 0-1.676-.523-1.676-1.744V88.52h3.127v-3.265h-3.127v-3.413h-3.677v3.413h-2.301v3.265h2.126v5.606c0 2.368 1.351 4.162 4.378 4.162zM223.162 83.71h4.102v-3.888h-4.102v3.887zm.125 14.577h3.852V85.254h-3.852v13.033zM234.796 98.51c4.252 0 6.529-2.84 6.529-6.727 0-3.912-2.327-6.753-6.529-6.753s-6.528 2.84-6.528 6.753c0 3.912 2.276 6.728 6.528 6.728zm0-3.363c-1.576 0-2.601-.997-2.601-3.364 0-2.342 1-3.389 2.601-3.389s2.602 1.022 2.602 3.389-1.001 3.364-2.602 3.364zM242.707 98.287h3.852V91.06c0-1.57 1-2.541 2.376-2.541 1.526 0 2.201.897 2.201 2.392v7.376h3.852v-8.572c0-2.866-1.951-4.685-4.852-4.685-1.701 0-2.852.623-3.577 1.47h-.1l-.3-1.246h-3.452v13.033z"
                  fill="#FBF8E9"></path>
        </mask>
    </defs>
   <!--<g fill="#16343E">-->
    <g fill="#FBF8E9">
        <g class="text" mask="url(#border-mask)">
            <g class="text-group" transform="translate(-25,-35) scale(1.5)">
                <path d="M126.863 55.99c3.466 0 5.764-2.38 6.037-5.188h-3.096c-.234 1.287-1.11 2.438-2.941 2.438-2.259 0-3.486-1.482-3.486-4.231 0-2.75 1.227-4.251 3.486-4.251 1.909 0 2.804 1.248 2.921 2.554h3.116c-.195-2.886-2.551-5.323-6.037-5.323-4.382 0-6.602 3.08-6.602 7.02 0 3.88 2.22 6.98 6.602 6.98z"></path>
                <path d="M138.625 55.99c2.785 0 4.401-1.62 4.674-3.452h-2.902c-.175.468-.662 1.014-1.772 1.014-1.363 0-1.967-.839-1.986-2.028h6.796v-1.111c0-2.77-1.753-4.973-4.868-4.973-3.311 0-4.986 2.399-4.986 5.285 0 2.924 1.831 5.264 5.044 5.264zm-1.967-6.357c.059-.975.623-1.736 1.909-1.736 1.187 0 1.752.76 1.811 1.736h-3.72zM144.5 55.814h2.999v-5.655c0-1.228.778-1.989 1.85-1.989 1.187 0 1.713.702 1.713 1.872v5.772h2.999v-6.708c0-2.242-1.519-3.666-3.778-3.666-1.324 0-2.22.488-2.784 1.15h-.078l-.234-.974H144.5v10.198zM159.904 55.814h2.065V53.2H160.8c-.896 0-1.304-.41-1.304-1.365V48.17h2.434v-2.554h-2.434v-2.672h-2.863v2.672h-1.792v2.554h1.656v4.387c0 1.853 1.051 3.257 3.407 3.257zM167.98 55.99c2.784 0 4.401-1.62 4.673-3.452h-2.901c-.176.468-.662 1.014-1.772 1.014-1.364 0-1.967-.839-1.987-2.028h6.797v-1.111c0-2.77-1.753-4.973-4.869-4.973-3.31 0-4.985 2.399-4.985 5.285 0 2.924 1.83 5.264 5.044 5.264zm-1.967-6.357c.058-.975.623-1.736 1.908-1.736 1.188 0 1.753.76 1.811 1.736h-3.719zM173.854 55.814h2.804v-5.031c0-1.638.916-2.593 2.337-2.593h.974v-2.75h-.701c-1.305 0-2.162.76-2.61 1.658h-.078l-.233-1.482h-2.493v10.198zM125.247 74.393c3.31 0 5.082-2.223 5.082-5.265 0-3.061-1.811-5.284-5.082-5.284-3.272 0-5.083 2.223-5.083 5.284s1.772 5.265 5.083 5.265zm0-2.633c-1.227 0-2.026-.78-2.026-2.632 0-1.833.779-2.652 2.026-2.652 1.246 0 2.025.8 2.025 2.652s-.779 2.632-2.025 2.632zM131.406 74.217h2.999v-5.655c0-1.228.779-1.988 1.85-1.988 1.188 0 1.713.701 1.713 1.871v5.772h2.999V67.51c0-2.243-1.519-3.666-3.778-3.666-1.324 0-2.22.487-2.784 1.15h-.078l-.234-.975h-2.687v10.198zM155.988 69.03c1.655-.663 2.687-2.145 2.687-4.114 0-2.32-1.752-4.348-4.654-4.348h-6.231v13.65h3.057V69.4h1.908l2.941 4.816h3.583v-.195l-3.291-4.992zm-5.141-5.732h3.018c1.188 0 1.675.819 1.675 1.638 0 .858-.448 1.735-1.675 1.735h-3.018v-3.373zM163.835 74.393c1.324 0 2.22-.488 2.784-1.15h.078l.234.974h2.687V64.02h-2.999v5.655c0 1.228-.779 1.989-1.85 1.989-1.188 0-1.713-.702-1.713-1.872v-5.772h-2.999v6.708c0 2.242 1.519 3.666 3.778 3.666zM170.944 74.217h2.805v-5.03c0-1.638.915-2.594 2.337-2.594h.973v-2.75h-.701c-1.305 0-2.161.761-2.609 1.658h-.078l-.234-1.482h-2.493v10.198zM180.916 74.393c1.265 0 2.161-.449 2.726-1.092h.078l.214.916h2.687V67.51c0-2.126-1.674-3.666-4.459-3.666-2.999 0-4.382 1.638-4.382 3.548h2.805c0-.623.545-1.13 1.48-1.13 1.11 0 1.557.546 1.557 1.248v.545h-2.181c-2.804 0-4.089 1.248-4.089 3.14 0 1.813 1.266 3.198 3.564 3.198zm.759-2.34c-.896 0-1.363-.43-1.363-1.014 0-.546.428-.975 1.383-.975h1.927v.429c0 .838-.72 1.56-1.947 1.56zM187.985 74.217h2.999V59.788h-2.999v14.43zM121.04 92.62h3.077V78.972h-3.077v13.65zM126.062 92.62h2.999v-5.654c0-1.229.779-1.989 1.85-1.989 1.188 0 1.713.702 1.713 1.872v5.772h2.999v-6.708c0-2.242-1.519-3.666-3.778-3.666-1.324 0-2.22.488-2.784 1.15h-.078l-.234-.974h-2.687V92.62zM136.988 92.62h2.999v-5.654c0-1.229.779-1.989 1.85-1.989 1.188 0 1.713.702 1.713 1.872v5.772h2.999v-6.708c0-2.242-1.519-3.666-3.778-3.666-1.324 0-2.22.488-2.784 1.15h-.078l-.234-.974h-2.687V92.62zM152.509 92.796c3.311 0 5.083-2.223 5.083-5.265 0-3.061-1.811-5.284-5.083-5.284-3.271 0-5.082 2.223-5.082 5.284 0 3.062 1.772 5.265 5.082 5.265zm0-2.632c-1.226 0-2.025-.78-2.025-2.633 0-1.833.779-2.652 2.025-2.652 1.247 0 2.026.8 2.026 2.652 0 1.853-.779 2.633-2.026 2.633zM160.742 92.62h3.836l3.194-10.002v-.195h-3.038l-2.006 7.37h-.078l-2.064-7.37h-3.077v.195l3.233 10.003zM171.245 92.796c1.266 0 2.161-.449 2.726-1.092h.078l.214.917h2.688v-6.708c0-2.126-1.675-3.666-4.46-3.666-2.999 0-4.381 1.638-4.381 3.549h2.804c0-.624.545-1.131 1.48-1.131 1.11 0 1.558.546 1.558 1.248v.546h-2.181c-2.805 0-4.09 1.248-4.09 3.14 0 1.813 1.266 3.197 3.564 3.197zm.759-2.34c-.896 0-1.363-.429-1.363-1.014 0-.546.429-.975 1.383-.975h1.928v.43c0 .838-.721 1.56-1.948 1.56zM182.793 92.62h2.064v-2.612h-1.168c-.896 0-1.305-.41-1.305-1.365v-3.666h2.434v-2.554h-2.434V79.75h-2.862v2.672h-1.792v2.554h1.655v4.387c0 1.853 1.052 3.257 3.408 3.257zM186.214 81.214h3.194v-3.042h-3.194v3.042zm.097 11.407h2.999V82.423h-2.999V92.62zM195.272 92.796c3.311 0 5.083-2.223 5.083-5.265 0-3.061-1.811-5.284-5.083-5.284-3.272 0-5.083 2.223-5.083 5.284 0 3.062 1.773 5.265 5.083 5.265zm0-2.632c-1.227 0-2.025-.78-2.025-2.633 0-1.833.779-2.652 2.025-2.652s2.025.8 2.025 2.652c0 1.853-.779 2.633-2.025 2.633zM201.431 92.62h2.999v-5.654c0-1.229.779-1.989 1.85-1.989 1.188 0 1.714.702 1.714 1.872v5.772h2.999v-6.708c0-2.242-1.519-3.666-3.778-3.666-1.324 0-2.22.488-2.785 1.15h-.078l-.234-.974h-2.687V92.62z"></path>
            </g>
        </g>
        <g class="logo" transform="translate(10,0)">
            <path class="text" d="M36.827 51.097h-3.421c-4.481 0-6.601 2.159-6.601 6.62V76.14c0 4.462 2.168 6.573 6.6 6.573h3.325c4.433 0 6.602-2.16 6.602-6.573v-8.251H36.2v8.107c0 .432-.289.672-.819.672h-.722c-.482 0-.675-.24-.675-.672V57.861c0-.48.241-.671.675-.671h.867c.482 0 .674.24.674.671v4.03c0 2.111.097 3.118 2.072 3.118h5.06v-7.292c0-4.51-2.072-6.62-6.505-6.62zM56.29 51.097h-3.613c-4.481 0-6.65 2.159-6.65 6.62V76.14c0 4.462 2.169 6.573 6.65 6.573h3.614c4.432 0 6.6-2.16 6.6-6.573V57.717c.049-4.461-2.12-6.62-6.6-6.62zm-.674 24.898c0 .48-.241.672-.771.672h-.723c-.53 0-.77-.24-.77-.672V57.861c0-.48.24-.671.77-.671h.723c.53 0 .77.24.77.671v18.134zM72.722 71.294h1.494c.482 0 .675.24.675.672v7.34c0 2.11.096 3.118 2.072 3.118h6.263s0-.048-.096-.144c-.578-.48-.867-1.871-.867-2.926v-6.717c0-2.446-1.012-3.742-3.373-4.317l-.386-.096.338-.096c2.264-.768 3.324-2.351 3.324-5.038v-5.085c0-4.413-2.168-6.572-6.649-6.572h-9.974v31.039h7.18V71.294zm0-13.768h1.542c.482 0 .675.24.675.671v6.38c0 .48-.241.672-.675.672h-1.542v-7.723zM92.284 51.385h-7.42v31.039h7.42v-31.04z"></path>
            <path class="shape" d="M114.738 31.188l-.53-.288-34.692-19.957-5.011-2.878-51.22 29.456-.819-3.694.049-.048L70.89 5.954l-3.903-2.255L21.6 29.845l-.819-3.694.048-.048L63.374 1.636l-1.3-.767c-1.687-.96-3.71-.768-6.072.575L20.78 21.737l-4.963 2.83V83.48l-3.614-1.152V26.631l-3.902 2.254v52.196L4.687 79.93V30.948l-1.301.768c-1.687.96-2.554 2.83-2.554 5.469v46.247l51.267 29.456-2.794 2.542-.048-.048L.832 87.605v4.462l45.437 26.098-2.794 2.542-.049-.048L.832 96.241v1.487c0 1.919 1.205 3.598 3.517 4.941l.53.288 34.741 19.957 4.963 2.831L95.85 96.289l.82 3.694-.049.048-48.376 27.824 3.903 2.255 45.437-26.098.82 3.694-.049.048-42.546 24.467 1.252.72.049.048c1.686.959 3.71.767 6.07-.576l35.271-20.245 4.963-2.831v-58.96l3.614 1.152v55.698l3.903-2.255V52.728l3.614 1.152v48.981l1.301-.768c1.686-.959 2.553-2.83 2.553-5.517V50.33L66.988 20.97l2.843-2.542.048.048L118.256 46.3v-4.462L72.819 15.741l2.794-2.543.048.048 42.547 24.467v-1.488c.048-2.063-1.157-3.694-3.47-5.037zM95.176 42.846c1.638.96 3.084 3.454 3.132 5.325v37.42c0 1.87-1.446 4.413-3.084 5.373L62.7 109.672c-.82.48-1.927.72-3.132.72-1.156 0-2.313-.24-3.084-.72l-32.572-18.71c-1.638-.959-3.035-3.406-3.084-5.325V48.171c.049-1.92 1.446-4.318 3.084-5.277l32.524-18.71c.771-.48 1.927-.72 3.132-.72s2.313.24 3.132.72l32.476 18.662z"></path>
        </g>
    </g>
</svg>
